<svg width="18" height="18" viewBox="0 0 18 18" fill="none" xmlns="http://www.w3.org/2000/svg">
<g clip-path="url(#clip0_1162_323)">
<path d="M8.99999 3.3696e-05C7.91495 -0.00278254 6.8402 0.210432 5.8384 0.627246C4.8366 1.04406 3.9278 1.65613 3.16499 2.42778C1.61589 3.99211 0.749498 6.10636 0.755401 8.30791C0.761304 10.5095 1.63902 12.619 3.19649 14.175L5.99999 16.7693C6.79653 17.554 7.86852 17.9957 8.98663 18.0001C10.1047 18.0044 11.1801 17.571 11.9827 16.7925L14.838 14.1405C16.3822 12.5827 17.2486 10.478 17.2486 8.28453C17.2486 6.09105 16.3822 3.98636 14.838 2.42853C14.0749 1.65639 13.1656 1.04397 12.1633 0.627011C11.1609 0.210056 10.0856 -0.00308313 8.99999 3.3696e-05ZM13.275 12.525L10.425 15.1695C10.0371 15.5403 9.51988 15.7453 8.98327 15.7409C8.44667 15.7366 7.93288 15.5233 7.55099 15.1463L4.75949 12.552C3.63382 11.4167 3.00223 9.88259 3.00223 8.28378C3.00223 6.68498 3.63382 5.1509 4.75949 4.01553C5.3149 3.45606 5.97553 3.01203 6.70331 2.70902C7.4311 2.40601 8.21165 2.25001 8.99999 2.25001C9.78833 2.25001 10.5689 2.40601 11.2967 2.70902C12.0245 3.01203 12.6851 3.45606 13.2405 4.01553C14.3644 5.14424 14.9983 6.67037 15.0047 8.2632C15.0112 9.85603 14.3897 11.3873 13.275 12.525ZM12.75 7.59603V10.5C12.75 10.6989 12.671 10.8897 12.5303 11.0304C12.3897 11.171 12.1989 11.25 12 11.25H11.25C11.0511 11.25 10.8603 11.171 10.7197 11.0304C10.579 10.8897 10.5 10.6989 10.5 10.5V9.00003C10.5 8.80112 10.421 8.61036 10.2803 8.4697C10.1397 8.32905 9.9489 8.25003 9.74999 8.25003H8.24999C8.05108 8.25003 7.86031 8.32905 7.71966 8.4697C7.57901 8.61036 7.49999 8.80112 7.49999 9.00003V10.5C7.49999 10.6989 7.42097 10.8897 7.28032 11.0304C7.13967 11.171 6.9489 11.25 6.74999 11.25H5.99999C5.80108 11.25 5.61031 11.171 5.46966 11.0304C5.32901 10.8897 5.24999 10.6989 5.24999 10.5V7.59603C5.25002 7.35382 5.30871 7.11522 5.42104 6.90063C5.53336 6.68604 5.69598 6.50184 5.89499 6.36378L8.14499 4.80228C8.39608 4.62809 8.69439 4.53475 8.99999 4.53475C9.30559 4.53475 9.6039 4.62809 9.85499 4.80228L12.105 6.36378C12.304 6.50184 12.4666 6.68604 12.5789 6.90063C12.6913 7.11522 12.75 7.35382 12.75 7.59603Z" fill="white"/>
</g>
<defs>
<clipPath id="clip0_1162_323">
<rect width="18" height="18" fill="white"/>
</clipPath>
</defs>
</svg>
