<svg width="257" height="248" viewBox="0 0 257 248" fill="none" xmlns="http://www.w3.org/2000/svg">
<path d="M135.894 1.60419C129.127 -0.180932 122.076 -0.111521 114.644 2.92539C105.633 6.69925 97.7274 12.6106 89.7305 18.1505C64.8075 36.1588 38.9598 53.2363 13.3901 70.4075C10.9728 71.9766 8.64793 73.6389 6.23031 75.3008C3.25482 77.3319 0.466103 78.9926 0.545658 82.9822C0.613224 90.5898 0.588325 98.1044 0.563119 105.712C0.537912 113.319 0.512705 120.927 0.487806 128.441C0.459218 137.069 0.430323 145.79 0.401735 154.417C0.372225 163.324 0.342407 172.323 0.312897 181.229C0.285231 189.578 0.257258 198.021 0.229592 206.37C0.206537 213.328 0.183175 220.379 0.16012 227.337C0.144135 232.161 0.128458 236.892 0.112474 241.717C0.106633 243.479 0.100792 245.242 0.0949518 247.005L255.684 247.852C255.714 238.853 255.743 229.946 255.773 220.947C255.838 201.372 255.903 181.797 255.968 162.222C256.052 136.803 255.116 111.101 256.406 85.7782C256.506 83.7375 256.42 81.6034 255.313 79.837C253.56 76.8625 249.483 75.2718 246.8 73.2219C242.82 70.24 238.562 67.4426 234.489 64.6459C231.157 62.3155 227.825 59.9852 224.492 57.7475C222.826 56.6287 221.16 55.4172 219.494 54.2984C218.476 53.5528 215.702 50.8532 214.496 50.8492C200.704 41.2478 186.82 31.6461 172.842 22.3224C172.287 21.9494 171.731 21.5765 171.176 21.2036C165.066 17.1941 158.956 13.2773 152.753 9.45305C147.476 6.00293 141.919 3.10853 135.894 1.60419Z" fill="#B83950"/>
</svg>
