<svg width="257" height="104" viewBox="0 0 257 104" fill="none" xmlns="http://www.w3.org/2000/svg">
<path d="M0.116786 100.511C0.0243203 100.418 0.0243216 100.418 0.0249364 100.232C-0.0662993 99.7681 0.213248 99.3979 0.307557 98.9344C0.402174 98.3781 0.496791 97.8217 0.684181 97.2657C0.966188 96.1533 1.34066 95.1341 1.71513 94.1148C2.64993 91.9841 3.76966 90.0396 5.1674 88.1887C6.56514 86.3379 8.14811 84.5804 9.82355 82.916C10.5682 82.1763 11.4056 81.4369 12.243 80.6975C29.7341 65.7261 49.256 53.823 68.1325 40.7117C77.6172 34.1561 82.0832 30.2745 91.5678 23.7189C98.17 19.1021 104.403 14.0202 110.728 9.0314C115.844 5.05908 121.424 0.809986 128.198 0.461335C135.528 0.0217559 142.566 3.94157 148.398 7.95017C150.619 9.44191 152.84 11.1192 154.968 12.7962C162.372 18.4799 169.123 24.9037 176.619 30.4021C182.362 33.2972 192.351 42.5148 197.44 46.4282C201.789 49.7825 209.287 54.8171 215.58 59.6622C226.221 67.9543 233.177 68.8123 242.142 78.8616C246.209 83.421 249.718 88.3496 252.762 93.6478C253.593 95.0422 256.825 99.5988 255.985 101.08C255.145 102.562 248.836 102.634 247.351 102.722C234.823 103.886 222.401 101.155 209.876 101.113C194.476 101.062 179.168 101.011 163.768 100.96C126.474 100.837 89.1789 100.713 51.8843 100.59C51.5132 100.588 51.2349 100.587 50.8638 100.586C50.2144 100.584 49.5649 100.582 48.9155 100.58C47.9878 100.577 47.1529 100.574 46.2251 100.571C45.1119 100.567 43.9986 100.564 42.8853 100.56C41.5865 100.556 40.2877 100.551 39.0816 100.547C37.69 100.543 36.2984 100.538 34.8141 100.533C33.3297 100.528 31.8454 100.523 30.361 100.518C28.7839 100.513 27.2995 100.508 25.7224 100.503C24.1452 100.498 22.6609 100.493 21.0837 100.488C19.5994 100.483 18.115 100.478 16.6306 100.473C15.239 100.468 13.8475 100.464 12.4559 100.459C11.157 100.455 9.951 100.451 8.65218 100.446C7.53891 100.443 6.42564 100.439 5.40514 100.436C4.57018 100.433 3.64246 100.43 2.8075 100.427C2.15809 100.425 1.60146 100.423 0.951741 100.514C0.766196 100.513 0.301716 100.697 0.116786 100.511Z" fill="#B83950"/>
</svg>
