<svg width="260" height="171" viewBox="0 0 260 171" fill="none" xmlns="http://www.w3.org/2000/svg">
<path d="M258.032 3.69438C257.013 3.04159 255.529 3.12944 254.322 3.31099C237.799 6.03946 224.683 16.5722 211.755 26.3634C198.735 36.1543 184.511 44.9206 170.658 53.781C164.057 58.0267 157.548 62.6438 151.224 67.2616C145.551 71.4176 139.687 77.3357 132.63 78.9822C122.696 81.3614 113.449 72.239 106.51 66.3712C83.0116 46.4398 55.5976 32.2473 31.2611 13.2409C23.7655 7.46406 15.4461 -1.65533 4.86111 1.00004C0.125702 2.1904 1.8681 8.31924 2.13504 11.7528C3.82087 34.9518 2.44459 58.3262 1.53279 81.5166C0.527901 104.799 0.822142 127.994 1.76549 151.283C1.84873 154.16 1.8392 157.035 1.82998 159.819C1.82045 162.695 1.71815 165.57 1.70892 168.353C1.708 168.632 1.614 169.003 1.61308 169.281C1.61154 169.745 2.07571 169.653 2.4468 169.655C2.72512 169.656 3.00344 169.657 3.28176 169.657C3.56008 169.658 3.74562 169.659 4.02394 169.66C4.30226 169.661 4.67335 169.662 4.95167 169.663C5.32276 169.664 5.69385 169.665 6.06494 169.667C6.5288 169.668 6.8999 169.669 7.36376 169.671C7.82762 169.673 8.29148 169.674 8.84812 169.676C9.40476 169.678 9.96139 169.68 10.518 169.681C11.0747 169.683 11.7241 169.685 12.2807 169.687C12.9301 169.689 13.5795 169.692 14.2289 169.694C14.9711 169.696 15.6205 169.698 16.3627 169.701C17.1049 169.703 17.8471 169.706 18.5893 169.708C19.4242 169.711 20.1664 169.713 21.0013 169.716C21.8363 169.719 22.6713 169.722 23.5062 169.724C24.4339 169.728 25.2689 169.73 26.1966 169.733C27.1243 169.736 28.0521 169.74 28.9798 169.743C29.9075 169.746 30.928 169.749 31.8558 169.752C32.8763 169.756 33.8968 169.759 34.9173 169.762C35.9378 169.766 37.051 169.769 38.0715 169.773C39.1848 169.776 40.2053 169.78 41.3186 169.783C42.4318 169.787 43.5451 169.791 44.6584 169.795C45.7717 169.798 46.9777 169.802 48.091 169.806C49.297 169.81 50.4103 169.814 51.6163 169.818C52.8224 169.822 54.0284 169.826 55.2345 169.83C56.4405 169.834 57.7393 169.838 58.9454 169.842C60.2442 169.846 61.4503 169.85 62.7491 169.854C64.0479 169.859 65.3467 169.863 66.6455 169.867C67.9444 169.872 69.2432 169.876 70.6348 169.881C71.9336 169.885 73.3252 169.89 74.624 169.894C76.0156 169.898 77.3144 169.903 78.706 169.907C80.0976 169.912 81.4892 169.917 82.788 169.921C84.1796 169.926 85.5712 169.93 86.9627 169.935C88.3543 169.939 89.7459 169.944 91.2303 169.949C92.6219 169.953 94.1062 169.958 95.4978 169.963C96.8894 169.968 98.3738 169.973 99.7654 169.977C101.25 169.982 102.641 169.987 104.126 169.992C105.61 169.997 107.002 170.001 108.486 170.006C109.97 170.011 111.455 170.016 112.846 170.02C114.331 170.025 115.815 170.03 117.299 170.035C118.784 170.04 120.268 170.045 121.753 170.05C123.237 170.055 124.721 170.06 126.206 170.065C127.69 170.07 129.174 170.075 130.659 170.08C132.143 170.084 133.627 170.089 135.112 170.094C136.596 170.099 138.081 170.104 139.565 170.109C141.049 170.114 142.534 170.119 144.018 170.124C145.502 170.129 146.987 170.134 148.471 170.139C149.955 170.143 151.44 170.148 152.831 170.153C154.316 170.158 155.707 170.163 157.192 170.167C158.676 170.172 160.068 170.177 161.552 170.182C162.944 170.186 164.428 170.191 165.82 170.196C167.211 170.201 168.696 170.206 170.087 170.21C171.479 170.215 172.87 170.219 174.262 170.224C175.653 170.229 177.045 170.233 178.437 170.238C179.828 170.242 181.22 170.247 182.519 170.251C183.91 170.256 185.209 170.26 186.601 170.265C187.899 170.269 189.291 170.274 190.59 170.278C191.889 170.282 193.188 170.287 194.486 170.291C195.785 170.295 197.084 170.3 198.383 170.304C199.682 170.308 200.888 170.312 202.186 170.317C203.393 170.321 204.691 170.325 205.897 170.329C207.103 170.333 208.309 170.337 209.516 170.341C210.722 170.345 211.835 170.348 213.041 170.352C214.154 170.356 215.36 170.36 216.473 170.364C217.587 170.368 218.7 170.371 219.813 170.375C220.927 170.379 221.947 170.382 223.06 170.386C224.081 170.389 225.101 170.392 226.215 170.396C227.235 170.4 228.256 170.403 229.183 170.406C230.111 170.409 231.132 170.412 232.059 170.415C232.987 170.419 233.915 170.422 234.842 170.425C235.677 170.427 236.605 170.431 237.44 170.433C238.275 170.436 239.11 170.439 239.945 170.442C240.687 170.444 241.522 170.447 242.264 170.449C243.006 170.452 243.749 170.454 244.491 170.457C245.14 170.459 245.882 170.461 246.532 170.463C247.181 170.466 247.831 170.468 248.48 170.47C249.037 170.472 249.686 170.474 250.243 170.476C250.799 170.478 251.356 170.479 251.82 170.481C252.284 170.483 252.748 170.484 253.211 170.486C253.675 170.487 254.046 170.488 254.51 170.49C254.881 170.491 255.252 170.492 255.624 170.494C255.902 170.494 256.273 170.496 256.551 170.497C256.83 170.498 257.015 170.498 257.293 170.499C257.479 170.5 257.665 170.5 257.85 170.501C257.943 170.501 258.036 170.502 258.221 170.502L258.314 170.502L258.778 170.504C258.959 115.861 258.49 61.3084 259.413 6.66772C259.416 5.83277 259.419 4.90503 258.958 4.25409C258.494 4.06701 258.309 3.88085 258.032 3.69438Z" fill="#B83950"/>
</svg>
