<svg width="17" height="17" viewBox="0 0 17 17" fill="none" xmlns="http://www.w3.org/2000/svg">
<g clip-path="url(#clip0_1162_317)">
<path d="M12.3958 17C6.62359 17.1622 -3.59483 6.93246 1.31888 1.37275C1.33659 1.35575 2.09238 0.697 2.09238 0.697C2.56673 0.258502 3.19043 0.0173818 3.83638 0.0227779C4.48234 0.028174 5.10192 0.27968 5.56888 0.726042L7.09321 2.36796C7.54223 2.83721 7.79054 3.46307 7.78538 4.11252C7.78022 4.76198 7.522 5.38381 7.06559 5.84588L6.79075 6.12496C7.60926 7.9375 9.05738 9.39167 10.8665 10.2177L11.1576 9.93438C11.6298 9.48465 12.2569 9.2338 12.909 9.2338C13.5611 9.2338 14.1882 9.48465 14.6603 9.93438L16.2449 11.4042C16.7142 11.8627 16.9836 12.4879 16.9945 13.1439C17.0054 13.8 16.7569 14.4338 16.303 14.9076C16.303 14.9076 15.6442 15.6627 15.6272 15.6804C15.2027 16.1033 14.6985 16.4377 14.1438 16.6642C13.5891 16.8907 12.995 17.0049 12.3958 17ZM2.79788 2.90417C-0.643913 7.16692 10.3728 17.5475 14.0993 14.2021C14.0993 14.2021 14.7538 13.452 14.7715 13.435C14.8379 13.3685 14.8752 13.2785 14.8752 13.1846C14.8752 13.0907 14.8379 13.0006 14.7715 12.9342L13.1863 11.4651C12.9738 11.288 12.8541 11.2859 12.6572 11.4368L11.8525 12.2287C11.7074 12.3715 11.5242 12.4695 11.325 12.5112C11.1257 12.5529 10.9186 12.5365 10.7284 12.4638C9.31499 11.9379 8.0312 11.1142 6.96403 10.0486C5.89687 8.98304 5.07127 7.70048 4.54321 6.28788C4.46635 6.09612 4.44706 5.88613 4.4877 5.68358C4.52833 5.48103 4.62713 5.29473 4.772 5.14746L5.55684 4.34987C5.59258 4.31813 5.6213 4.27927 5.64116 4.23578C5.66103 4.1923 5.6716 4.14515 5.6722 4.09735C5.6728 4.04954 5.66342 4.00214 5.64465 3.95817C5.62588 3.9142 5.59815 3.87464 5.56321 3.842L4.03746 2.20008C3.96995 2.14366 3.88343 2.11517 3.79561 2.12044C3.70778 2.12571 3.62529 2.16433 3.565 2.22842C3.548 2.24612 2.79788 2.90417 2.79788 2.90417ZM17 6.72917C16.9979 4.94511 16.2883 3.23472 15.0268 1.9732C13.7652 0.711688 12.0548 0.00206217 10.2708 0C9.989 0 9.71875 0.111942 9.51949 0.311199C9.32024 0.510456 9.2083 0.780708 9.2083 1.0625C9.2083 1.34429 9.32024 1.61454 9.51949 1.8138C9.71875 2.01306 9.989 2.125 10.2708 2.125C11.4914 2.1265 12.6617 2.61206 13.5248 3.47519C14.3879 4.33831 14.8735 5.50853 14.875 6.72917C14.875 7.01096 14.9869 7.28121 15.1862 7.48047C15.3854 7.67973 15.6557 7.79167 15.9375 7.79167C16.2193 7.79167 16.4895 7.67973 16.6888 7.48047C16.888 7.28121 17 7.01096 17 6.72917ZM13.4583 6.72917C13.4574 5.88408 13.1212 5.07387 12.5237 4.4763C11.9261 3.87873 11.1159 3.5426 10.2708 3.54167C9.989 3.54167 9.71875 3.65361 9.51949 3.85287C9.32024 4.05212 9.2083 4.32237 9.2083 4.60417C9.2083 4.88596 9.32024 5.15621 9.51949 5.35547C9.71875 5.55473 9.989 5.66667 10.2708 5.66667C10.5526 5.66667 10.8228 5.77861 11.0221 5.97787C11.2214 6.17712 11.3333 6.44737 11.3333 6.72917C11.3333 7.01096 11.4452 7.28121 11.6445 7.48047C11.8438 7.67973 12.114 7.79167 12.3958 7.79167C12.6776 7.79167 12.9478 7.67973 13.1471 7.48047C13.3464 7.28121 13.4583 7.01096 13.4583 6.72917Z" fill="white"/>
</g>
<defs>
<clipPath id="clip0_1162_317">
<rect width="17" height="17" fill="white"/>
</clipPath>
</defs>
</svg>
