<svg width="14" height="16" viewBox="0 0 14 16" fill="none" xmlns="http://www.w3.org/2000/svg">
<g id="#000000ff">
<path id="Vector" d="M2.39776 0.938381C2.68958 0.450629 3.20641 0.10639 3.76864 0.0242462C4.35707 -0.0495878 4.97428 0.042465 5.49335 0.338121C6.00412 0.615238 6.39534 1.07582 6.64848 1.59362C6.96076 0.993357 7.45874 0.472044 8.09032 0.210589C8.53844 0.0172144 9.0377 -0.031369 9.5197 0.0197714C10.1123 0.0968017 10.6601 0.465971 10.9465 0.991439C11.2169 1.50508 11.2959 2.11525 11.1674 2.68131C11.0661 3.15148 10.8123 3.57723 10.4792 3.92019C10.8541 3.92115 11.2291 3.91763 11.604 3.9221C12.0882 3.92914 12.5632 4.15256 12.8771 4.52141C13.1507 4.83624 13.3003 5.25271 13.2964 5.66951C13.2974 8.23708 13.2964 10.8046 13.2967 13.3725C13.2977 13.5554 13.282 13.7398 13.2306 13.9159C13.0909 14.4231 12.7038 14.854 12.2145 15.0467C12 15.1337 11.7686 15.1724 11.5378 15.1711C8.40548 15.1711 5.27313 15.1711 2.14078 15.1711C1.83138 15.1685 1.51367 15.1925 1.21514 15.0924C0.515151 14.8885 -0.000727808 14.1972 0.00150958 13.4681C-0.00136706 10.8791 0.00118993 8.28981 0.000231045 5.70083C-0.00392411 5.42979 0.0478555 5.15683 0.16452 4.91135C0.425336 4.34082 1.01824 3.94224 1.64567 3.91891C2.04297 3.91188 2.44091 3.91763 2.83852 3.91571C2.48853 3.55613 2.2274 3.10386 2.13534 2.60748C2.02475 2.04365 2.11521 1.43988 2.39776 0.938381ZM3.57015 1.15253C3.31924 1.29317 3.1687 1.56102 3.11724 1.83781C3.03797 2.20762 3.1182 2.60428 3.325 2.92007C3.59924 3.38545 4.08891 3.68782 4.60479 3.81567C5.10436 3.94895 5.62536 3.91635 6.13676 3.91987C6.09393 3.18376 5.99037 2.41442 5.58572 1.7806C5.31596 1.34303 4.82341 1.06272 4.31392 1.02724C4.06206 1.01637 3.79133 1.01253 3.57015 1.15253ZM7.68184 1.81384C7.28326 2.44127 7.17044 3.20422 7.16021 3.93521C7.6828 3.93105 8.21594 3.96621 8.7251 3.8227C9.24034 3.68974 9.72586 3.37906 9.99467 2.9108C10.2341 2.53396 10.2817 2.04397 10.1164 1.62878C10.0244 1.37627 9.80928 1.17523 9.55454 1.09244C9.42349 1.04418 9.28158 1.05121 9.14573 1.02596C8.56209 0.99975 7.98964 1.3213 7.68184 1.81384ZM1.024 5.63723C1.02176 8.1837 1.024 10.7305 1.02272 13.277C1.02304 13.4125 1.01473 13.5528 1.06363 13.6823C1.13363 13.8833 1.3008 14.0469 1.50344 14.1125C1.63577 14.1591 1.778 14.147 1.91576 14.1483C3.31093 14.1479 4.70611 14.1486 6.10128 14.1479C6.11279 11.0795 6.12525 8.0111 6.13676 4.94267C4.66647 4.94363 3.19587 4.94172 1.72526 4.94363C1.35385 4.93596 1.01952 5.2655 1.024 5.63723ZM7.19601 4.94299C7.18354 8.01142 7.1714 11.0795 7.16021 14.1479C8.6305 14.1483 10.1005 14.1483 11.5707 14.1479C11.8447 14.1524 12.1096 13.9785 12.2158 13.726C12.2765 13.5953 12.2762 13.4483 12.2742 13.307C12.2727 10.7497 12.2755 8.19233 12.273 5.63499C12.2758 5.26454 11.9428 4.93628 11.5727 4.94363C10.1136 4.94204 8.65479 4.94331 7.19601 4.94299Z" fill="#FFA800"/>
</g>
</svg>
