<svg width="15" height="15" viewBox="0 0 15 15" fill="none" xmlns="http://www.w3.org/2000/svg">
<path id="text" d="M7.466 11.5645H2.342C1.72111 11.5637 1.12587 11.3167 0.686833 10.8777C0.247794 10.4386 0.000793813 9.84339 0 9.2225L0 5.7675C0.000529187 5.14643 0.247413 4.55094 0.68648 4.11169C1.12555 3.67243 1.72093 3.42529 2.342 3.4245H7.466C7.54492 3.42124 7.62369 3.43397 7.69758 3.46192C7.77146 3.48987 7.83892 3.53247 7.89592 3.58717C7.95292 3.64186 7.99827 3.7075 8.02925 3.78017C8.06023 3.85283 8.0762 3.93101 8.0762 4.01C8.0762 4.08899 8.06023 4.16717 8.02925 4.23983C7.99827 4.3125 7.95292 4.37814 7.89592 4.43284C7.83892 4.48753 7.77146 4.53013 7.69758 4.55808C7.62369 4.58603 7.54492 4.59876 7.466 4.5955H2.342C2.03142 4.59603 1.73373 4.71971 1.51421 4.93942C1.29469 5.15912 1.17126 5.45692 1.171 5.7675V9.2225C1.17153 9.53291 1.29507 9.83045 1.51456 10.0499C1.73405 10.2694 2.03159 10.393 2.342 10.3935H7.466C7.54492 10.3902 7.62369 10.403 7.69758 10.4309C7.77146 10.4589 7.83892 10.5015 7.89592 10.5562C7.95292 10.6109 7.99827 10.6765 8.02925 10.7492C8.06023 10.8218 8.0762 10.9 8.0762 10.979C8.0762 11.058 8.06023 11.1362 8.02925 11.2088C7.99827 11.2815 7.95292 11.3471 7.89592 11.4018C7.83892 11.4565 7.77146 11.4991 7.69758 11.5271C7.62369 11.555 7.54492 11.5678 7.466 11.5645ZM12.649 3.4245H12.122C11.9709 3.43075 11.8281 3.49516 11.7234 3.60428C11.6187 3.7134 11.5602 3.85877 11.5602 4.01C11.5602 4.16123 11.6187 4.3066 11.7234 4.41572C11.8281 4.52484 11.9709 4.58925 12.122 4.5955H12.649C12.9596 4.59603 13.2573 4.71971 13.4768 4.93942C13.6963 5.15912 13.8197 5.45692 13.82 5.7675V9.2225C13.8195 9.53291 13.6959 9.83045 13.4764 10.0499C13.2569 10.2694 12.9594 10.393 12.649 10.3935H12.122C11.9709 10.3997 11.8281 10.4642 11.7234 10.5733C11.6187 10.6824 11.5602 10.8278 11.5602 10.979C11.5602 11.1302 11.6187 11.2756 11.7234 11.3847C11.8281 11.4938 11.9709 11.5583 12.122 11.5645H12.649C13.2699 11.5637 13.8651 11.3167 14.3042 10.8777C14.7432 10.4386 14.9902 9.84339 14.991 9.2225V5.7675C14.9905 5.14643 14.7436 4.55094 14.3045 4.11169C13.8655 3.67243 13.2701 3.42529 12.649 3.4245ZM12.122 13.8245C11.6562 13.824 11.2096 13.6387 10.8802 13.3093C10.5508 12.9799 10.3655 12.5333 10.365 12.0675V2.9285C10.3655 2.46268 10.5508 2.01608 10.8802 1.6867C11.2096 1.35731 11.6562 1.17203 12.122 1.1715C12.2009 1.17476 12.2797 1.16203 12.3536 1.13408C12.4275 1.10613 12.4949 1.06353 12.5519 1.00883C12.6089 0.954145 12.6543 0.888495 12.6853 0.815832C12.7162 0.743169 12.7322 0.664992 12.7322 0.586C12.7322 0.507008 12.7162 0.428831 12.6853 0.356168C12.6543 0.283505 12.6089 0.217855 12.5519 0.163165C12.4949 0.108475 12.4275 0.0658729 12.3536 0.0379193C12.2797 0.00996564 12.2009 -0.00276241 12.122 0.000500026C11.6673 0.000538423 11.2189 0.106576 10.8124 0.310194C10.4058 0.513813 10.0523 0.809404 9.78 1.1735C9.50756 0.809269 9.15392 0.513595 8.74719 0.309971C8.34046 0.106346 7.89185 0.000382942 7.437 0.000500026C7.2859 0.00674581 7.14307 0.0711632 7.03837 0.180282C6.93367 0.289402 6.8752 0.434773 6.8752 0.586C6.8752 0.737227 6.93367 0.882598 7.03837 0.991718C7.14307 1.10084 7.2859 1.16525 7.437 1.1715C7.90282 1.17203 8.34941 1.35731 8.6788 1.6867C9.00819 2.01608 9.19347 2.46268 9.194 2.9285V12.0635C9.19347 12.5293 9.00819 12.9759 8.6788 13.3053C8.34941 13.6347 7.90282 13.82 7.437 13.8205C7.2859 13.8267 7.14307 13.8912 7.03837 14.0003C6.93367 14.1094 6.8752 14.2548 6.8752 14.406C6.8752 14.5572 6.93367 14.7026 7.03837 14.8117C7.14307 14.9208 7.2859 14.9853 7.437 14.9915C7.89185 14.9916 8.34046 14.8857 8.74719 14.682C9.15392 14.4784 9.50756 14.1827 9.78 13.8185C10.0523 14.1826 10.4058 14.4782 10.8124 14.6818C11.2189 14.8854 11.6673 14.9915 12.122 14.9915C12.2731 14.9853 12.4159 14.9208 12.5206 14.8117C12.6253 14.7026 12.6838 14.5572 12.6838 14.406C12.6838 14.2548 12.6253 14.1094 12.5206 14.0003C12.4159 13.8912 12.2731 13.8267 12.122 13.8205V13.8245Z" fill="white" fill-opacity="0.35"/>
</svg>
