<svg width="225" height="216" viewBox="0 0 225 216" fill="none" xmlns="http://www.w3.org/2000/svg">
<path d="M-0.000153067 214.461L0.486765 67.5089C1.05109 65.1915 2.44944 63.1551 4.40228 61.7699C6.63466 60.0146 9.05167 58.5383 11.3762 56.9688C15.5602 54.1994 19.7442 51.4301 24.0207 48.7538C37.9658 39.9865 52.0027 31.4979 66.2246 23.1953C73.382 19.0442 80.6321 14.8934 87.8816 10.9282C91.5064 8.89919 95.131 6.96295 98.8487 4.93425C103.682 2.35259 108.607 -0.321526 114.171 0.531872C120.013 1.38619 125.292 4.00135 130.479 6.70898C156.596 20.2477 181.035 36.193 205.66 52.2317C205.753 52.3247 205.938 52.4181 206.03 52.5112C207.419 53.4436 208.808 54.2831 210.196 55.2155C213.344 57.2669 216.491 59.4111 219.545 61.5551C219.915 61.8346 220.286 62.1141 220.656 62.3937C222.599 63.7917 223.984 65.8374 224.533 68.1585L224.046 215.11L0.000154332 214.368L-0.000153067 214.461Z" fill="#F2CE6F"/>
</svg>
