<svg width="75" height="24" viewBox="0 0 75 24" fill="none" xmlns="http://www.w3.org/2000/svg">
<g id="Logo WHT Mini">
<path id="Path 149" d="M8.20303 0.782284C8.52339 0.602549 8.88072 0.498678 9.24751 0.47869C9.56827 0.467584 9.88669 0.537019 10.1737 0.680632C10.4608 0.824245 10.7072 1.03747 10.8907 1.30084C11.0741 1.56421 11.1886 1.86933 11.2238 2.18835C11.259 2.50737 11.2137 2.83013 11.092 3.12714C10.8399 3.65694 10.4325 4.09739 9.92384 4.38988C8.63036 5.21838 7.06633 5.48584 5.64143 6.05918C5.51539 6.1099 5.36938 6.19444 5.37476 6.33048C5.38014 6.46651 5.51925 6.53414 5.63991 6.57794C6.06261 6.73627 6.49762 6.85617 6.92263 7.00681C8.33936 7.47398 9.57515 8.37128 10.458 9.57378C10.8914 10.1773 11.1807 10.8721 11.3038 11.6048C11.4269 12.3376 11.3805 13.0888 11.1681 13.8008C10.8435 14.6135 10.3236 15.3335 9.65444 15.8974C8.98525 16.4612 8.1874 16.8514 7.33149 17.0334C6.06445 17.3848 4.71326 17.2686 3.52484 16.706C2.93905 16.4168 2.43978 15.9784 2.07725 15.435C1.71472 14.8915 1.50174 14.2621 1.45974 13.6102C1.44385 12.9576 1.65362 12.3196 2.05366 11.8037C2.45369 11.2879 3.0195 10.9259 3.6555 10.7789C3.94539 10.7113 4.24861 10.7288 4.52885 10.8291C4.80909 10.9294 5.05448 11.1083 5.23565 11.3445C5.4657 11.892 5.50122 12.5018 5.33631 13.0722C5.22312 13.6377 5.29284 14.2245 5.53537 14.7477C5.66485 15.0035 5.88014 15.2056 6.14357 15.3187C6.407 15.4318 6.7018 15.4487 6.97641 15.3664C7.24544 15.1989 7.45767 14.9542 7.58534 14.6642C7.713 14.3742 7.75015 14.0524 7.69194 13.7409C7.56227 12.3726 6.91617 11.1051 5.88508 10.1963C4.85602 9.29962 3.62797 8.66123 2.30284 8.3341C1.61656 8.23463 0.972212 7.94375 0.443697 7.49482C0.267609 7.29191 0.138818 7.0524 0.0666432 6.79361C-0.00553143 6.53482 -0.0192851 6.26322 0.026372 5.99846C0.0648191 5.7265 0.159943 5.46564 0.305574 5.23276C0.451204 4.99989 0.6441 4.80018 0.871787 4.64657C1.46647 4.36587 2.09272 4.15763 2.73707 4.02634C3.96959 3.58276 5.13775 2.9775 6.21093 2.2264C6.42459 2.07627 6.63467 1.92051 6.84115 1.75911C7.26531 1.39384 7.72106 1.06695 8.20303 0.782284Z" fill="white"/>
<path id="Path 150" d="M12.6522 3.34134C12.6369 3.08522 12.6882 2.82948 12.8012 2.59912C12.9142 2.36877 13.0851 2.17168 13.297 2.02709C13.7182 1.7386 14.2054 1.56122 14.7135 1.5114C15.1878 1.4541 15.6689 1.52552 16.1061 1.71815C16.2828 1.77475 16.4351 1.88966 16.538 2.04408C16.6409 2.1985 16.6883 2.38327 16.6725 2.56817C16.6029 3.66874 16.5004 4.81978 16.3651 6.02129C16.2429 7.10265 16.1015 8.18169 15.9808 9.26382C15.9401 9.63196 15.4751 12.9736 16.2391 12.7062C16.6234 12.5732 16.8677 11.9584 17.0168 11.6194C17.3056 10.9517 17.5601 10.2696 17.7793 9.57586C18.0027 8.88928 18.2173 8.20245 18.4233 7.51536C18.6293 6.82827 18.8183 6.17525 18.9905 5.55631C19.1616 4.93839 19.3153 4.4401 19.4516 4.06146C19.4414 3.84754 19.5043 3.63651 19.63 3.46314C19.7558 3.28976 19.9368 3.16439 20.1433 3.10769C20.5922 2.98795 21.0658 2.997 21.5098 3.13382C21.965 3.25864 22.393 3.46716 22.7718 3.74867C22.9242 3.83778 23.05 3.96599 23.1362 4.12003C23.2224 4.27407 23.2659 4.44833 23.2621 4.62481C23.1238 5.24376 22.9957 6.01693 22.8779 6.94432C22.76 7.87171 22.6832 8.76502 22.6473 9.62427C22.6079 10.3639 22.6336 11.1056 22.7241 11.8408C22.8092 12.4597 23.0067 12.7689 23.3167 12.7684C23.5227 12.7684 23.7709 12.5033 24.0645 11.9699C24.3897 11.3628 24.6737 10.7345 24.9145 10.0893C25.1891 9.36783 25.4466 8.64615 25.6869 7.92422C25.8759 7.38519 26.03 6.83454 26.1481 6.27568C26.1654 6.13233 26.2162 5.99505 26.2963 5.87491C26.3764 5.75477 26.4835 5.65513 26.6092 5.58398C26.8302 5.46597 27.0856 5.42924 27.3309 5.48022C27.5692 5.53034 27.7804 5.66731 27.9234 5.8645C28.0007 5.97617 28.0482 6.10564 28.0617 6.24075C28.0751 6.37587 28.054 6.5122 28.0003 6.6369C27.9306 6.91255 27.7846 7.42799 27.5622 8.18323C27.3398 8.93846 27.0478 9.76338 26.686 10.658C26.3256 11.5498 25.8946 12.4116 25.3972 13.2349C24.9914 13.9616 24.4171 14.5802 23.7225 15.0387C23.3469 15.2774 22.903 15.3855 22.4598 15.3462C21.9916 15.3115 21.5355 15.1807 21.1202 14.9619C20.6735 14.7242 20.2858 14.3894 19.9858 13.982C19.6515 13.5347 19.4305 13.0131 19.3417 12.4618C19.2331 11.8839 19.1816 11.2967 19.188 10.7087C18.8901 11.6428 18.5285 12.5554 18.1059 13.4401C17.7475 14.2209 17.2598 14.9355 16.6633 15.5537C16.3544 15.9124 15.9222 16.1422 15.4521 16.1977C14.9925 16.2502 14.5274 16.1702 14.1117 15.9671C13.6723 15.753 13.2853 15.445 12.9781 15.0649C12.6521 14.671 12.4306 14.2013 12.3341 13.6991C12.2201 13.0528 12.1686 12.397 12.1803 11.7409C12.1803 10.9508 12.206 10.0918 12.2572 9.1639C12.3084 8.236 12.3771 7.27376 12.4632 6.2772C12.5544 5.28218 12.6174 4.30357 12.6522 3.34134Z" fill="white"/>
<path id="Path 151" d="M37.5961 4.42449C37.4229 6.10712 37.3204 7.5843 37.2887 8.856C37.2569 10.1277 37.2223 11.2959 37.1849 12.3606C38.5936 10.5254 39.6904 8.47071 40.4313 6.27904C40.4631 6.13702 40.5229 6.00273 40.6071 5.88399C40.6912 5.76525 40.7981 5.6644 40.9216 5.58732C41.0219 5.52889 41.1333 5.49191 41.2487 5.47868C41.364 5.46545 41.4808 5.47628 41.5918 5.51048C41.8106 5.57583 41.9954 5.7235 42.1075 5.92241C42.1686 6.0506 42.2025 6.19012 42.2069 6.33209C42.2112 6.47406 42.186 6.61536 42.1328 6.74707C41.6126 8.55399 40.84 10.2785 39.8379 11.8695C39.0277 13.14 38.0673 14.3082 36.9774 15.3487C36.9087 15.898 36.8142 16.4478 36.6938 16.9981C36.5734 17.5483 36.4274 18.1153 36.2557 18.6989C35.8644 20.1648 35.0486 21.4825 33.9108 22.4863C33.0269 23.2341 31.9592 23.7322 30.8182 23.9289C29.8269 24.0899 28.8105 23.9742 27.8808 23.5946C27.0981 23.3271 26.4448 22.7748 26.0508 22.0475C25.8019 21.6078 25.6564 21.1172 25.6252 20.613C25.5941 20.1087 25.6781 19.6039 25.871 19.1369C26.2909 18.2657 26.9413 17.526 27.7517 16.9981C28.6248 16.4063 29.58 15.9459 30.5869 15.6316C31.4568 15.3403 32.3551 15.1419 33.2668 15.0398L33.4205 13.6472C33.1223 14.0463 32.7451 14.3796 32.3123 14.6263C31.7674 14.9214 31.153 15.064 30.5338 15.039C29.9883 15.0701 29.4422 14.9903 28.9284 14.8043C28.4147 14.6183 27.944 14.33 27.5449 13.9569C26.8064 13.2037 26.297 12.2562 26.0762 11.2247C25.8159 10.0579 25.7639 8.85426 25.9225 7.66935C26.0636 6.45205 26.3861 5.26273 26.8793 4.14091C27.3149 3.12066 27.9652 2.20631 28.7861 1.46018C29.5295 0.774057 30.506 0.396274 31.5176 0.40342C32.169 0.414397 32.8003 0.630927 33.3214 1.0221C33.9704 1.45861 34.4874 2.06466 34.8162 2.77441C35.1292 2.70584 35.45 2.68001 35.77 2.69757C36.0886 2.71326 36.4023 2.78291 36.6976 2.90355C36.9814 3.01813 37.224 3.21551 37.3939 3.46997C37.57 3.75509 37.6414 4.0925 37.5961 4.42449ZM32.9571 16.9473C31.9769 17.1125 31.0397 17.4717 30.2003 18.0041C29.7993 18.245 29.4555 18.5704 29.1928 18.9575C28.9302 19.3446 28.7549 19.7843 28.6793 20.246C28.6149 20.4591 28.6072 20.6853 28.657 20.9023C28.7067 21.1193 28.8121 21.3195 28.9629 21.4834C29.1095 21.6185 29.2914 21.7095 29.4874 21.7458C29.6835 21.7821 29.8859 21.7622 30.0712 21.6886C30.6531 21.4477 31.154 21.0453 31.5145 20.5288C32.1324 19.6719 32.5706 18.6989 32.8026 17.6683L32.9571 16.9473ZM33.0608 10.6606C33.3779 9.83225 33.5846 8.96583 33.6757 8.0836C33.7781 7.22812 33.7869 6.36402 33.7018 5.50664C33.6399 4.80205 33.4579 4.11324 33.1638 3.46997C33.0829 3.23913 32.9466 3.03162 32.767 2.86562C32.5873 2.69962 32.3697 2.58017 32.1332 2.51772C31.8906 2.49531 31.6467 2.54434 31.4317 2.65877C31.2166 2.77321 31.0397 2.94806 30.9227 3.16178C30.5188 3.74677 30.206 4.38968 29.9951 5.06855C29.7281 5.88905 29.5478 6.73523 29.4571 7.59326C29.3542 8.43996 29.3454 9.29546 29.4309 10.1441C29.4873 10.8365 29.68 11.5109 29.9981 12.1285C30.1089 12.3693 30.287 12.5728 30.5109 12.7145C30.7349 12.8562 30.9951 12.93 31.2601 12.927C31.5122 12.935 31.7589 12.8533 31.9564 12.6965C32.1458 12.5397 32.3025 12.3473 32.4175 12.13C32.545 11.8887 32.6566 11.6395 32.7519 11.3838C32.8419 11.1374 32.9451 10.896 33.0608 10.6606Z" fill="white"/>
<path id="Path 152" d="M65.9917 5.68746C65.9197 5.59577 65.829 5.52048 65.7257 5.46654C65.6223 5.41261 65.5086 5.38129 65.3922 5.37467C65.1481 5.36074 64.9059 5.42481 64.7006 5.55759C64.5829 5.64205 64.4837 5.74961 64.4091 5.87369C64.3344 5.99777 64.2858 6.13577 64.2663 6.27926C64.1389 6.90183 63.9676 7.51461 63.7537 8.11302C63.4755 8.92154 63.1627 9.7124 62.8238 10.5032C62.4848 11.2941 62.1459 11.9896 61.8154 12.5975C61.4849 13.2055 61.2244 13.4929 61.0161 13.4929C60.7087 13.4929 60.5204 13.2231 60.4512 12.6675C60.3812 12.0089 60.3812 11.3447 60.4512 10.6861C60.5209 9.91246 60.6339 9.09549 60.7902 8.23522C60.9377 7.38366 61.0853 6.64508 61.2244 6.01871C61.3635 5.39234 61.2935 5.01037 61.0161 4.83667C60.7069 4.65408 60.3486 4.57217 59.9909 4.60227C59.5513 4.62207 59.113 4.66568 58.6782 4.73291C58.344 4.81262 57.994 4.79448 57.6698 4.68066C57.9271 4.12709 58.035 3.51579 57.9826 2.90759C57.9134 2.36961 57.513 2.10831 56.7921 2.10831C56.3912 2.10666 56.0017 2.24226 55.6885 2.49259C55.3673 2.73714 55.1106 3.05634 54.9407 3.42254C54.7683 3.78091 54.6963 4.17933 54.7324 4.57537C54.7505 4.79686 54.8121 5.01259 54.9138 5.21019C54.9666 5.31205 55.0291 5.40857 55.1005 5.49839C55.1989 5.6229 55.2543 5.66826 55.1943 5.82504C54.9245 6.49753 54.7209 7.19384 54.5095 7.88554C54.2982 8.57724 54.0315 9.25203 53.7709 9.92683C53.7494 9.98216 53.7294 10.039 53.7064 10.0936C53.4509 10.7361 53.1578 11.3631 52.8287 11.9712C52.542 12.5092 52.2907 12.7705 52.0809 12.7705C51.8027 12.7705 51.629 12.463 51.5429 11.8405C51.452 11.1085 51.4263 10.3698 51.466 9.63322C51.5009 8.77295 51.579 7.87785 51.7004 6.9479C51.8219 6.01795 51.9441 5.25323 52.0847 4.62763C52.1229 4.42788 52.1195 4.22241 52.0747 4.02405C52.0298 3.82569 51.9446 3.63871 51.8242 3.47479C51.5917 3.15134 51.2718 2.90098 50.9019 2.75312C50.5256 2.59732 50.1171 2.53483 49.7114 2.57098C49.3153 2.59957 48.9467 2.78389 48.6862 3.0836C48.4383 2.66725 48.1341 2.28707 47.7824 1.95382C47.4323 1.61822 46.996 1.38646 46.5219 1.28441C45.9689 1.15045 45.394 1.13385 44.8342 1.23565C44.2744 1.33744 43.7421 1.55538 43.2717 1.87544C42.3465 2.54618 41.61 3.44439 41.1336 4.48315C40.5788 5.65303 40.2234 6.90744 40.0822 8.1945C39.9093 9.51107 39.924 10.8455 40.126 12.1579C40.3036 13.3396 40.7078 14.4759 41.3165 15.5042C41.83 16.4138 42.6832 17.0826 43.689 17.3641C44.3251 17.498 44.9864 17.4446 45.5927 17.2104C46.3394 16.911 46.9827 16.4006 47.4442 15.7417C47.9362 15.0567 48.3203 14.3004 48.5832 13.4991C48.7853 13.9434 49.0847 14.3366 49.4593 14.6495C49.834 14.9624 50.2742 15.187 50.7474 15.3067C51.0345 15.3926 51.3362 15.4185 51.6338 15.3827C51.9313 15.3468 52.2182 15.2501 52.4767 15.0984C53.0376 14.7578 53.5274 14.3121 53.9193 13.7857C54.3682 13.1786 54.7472 12.5227 55.0491 11.8305C55.3795 11.0919 55.6578 10.3787 55.9006 9.68396C56.0935 9.13982 56.2649 8.58722 56.4271 8.03309C56.508 7.7559 56.5877 7.47847 56.6661 7.20076C56.7599 6.93671 56.8324 6.66555 56.8828 6.38992H57.3609C57.5361 6.3898 57.7109 6.3723 57.8827 6.33766C57.5777 7.27719 57.3623 8.24347 57.2394 9.22359C57.085 10.2565 57.0592 11.3046 57.1626 12.3439C57.2349 13.2235 57.4802 14.0802 57.8842 14.8648C58.05 15.2001 58.3064 15.4821 58.6245 15.6788C58.9426 15.8756 59.3095 15.9791 59.6834 15.9776C60.3794 16.0178 61.0695 15.8289 61.6479 15.4397C62.2633 15.0089 62.8012 14.477 63.2388 13.8664C63.7302 13.2014 64.1469 12.4844 64.4815 11.7283C64.8204 10.9544 65.1163 10.2158 65.3592 9.5118C65.6021 8.8078 65.785 8.17297 65.9241 7.59963C66.0632 7.02629 66.1416 6.66968 66.1762 6.49598C66.2243 6.21268 66.1579 5.92189 65.9917 5.68746ZM47.302 9.91836C47.1632 10.7968 46.9451 11.6609 46.6503 12.4999C46.4143 13.1809 46.0776 13.8226 45.6512 14.4036C45.5268 14.6148 45.3465 14.7874 45.1302 14.9024C44.9138 15.0175 44.6699 15.0704 44.4253 15.0554C44.1923 15.0069 43.9776 14.894 43.8055 14.7296C43.6334 14.5653 43.5108 14.3559 43.4516 14.1254C43.2168 13.4774 43.082 12.7974 43.0519 12.1087C43.0029 11.2704 43.0348 10.4293 43.1472 9.5971C43.2562 8.76495 43.4514 7.94638 43.7298 7.15463C43.942 6.49691 44.2882 5.89033 44.7466 5.37312C44.9147 5.16455 45.1355 5.0047 45.3862 4.91011C45.6368 4.81552 45.9082 4.78965 46.1722 4.83515C46.3733 4.88474 46.5569 4.98893 46.7025 5.13621C46.8482 5.28349 46.9503 5.46814 46.9977 5.6698C47.179 6.16667 47.3043 6.68224 47.3712 7.20691C47.473 8.10963 47.4495 9.02209 47.3012 9.91836H47.302Z" fill="white"/>
<path id="Path 153" d="M73.076 17.6173C73.0202 17.8171 72.9607 18.0159 72.8977 18.2137C72.6225 19.1187 72.1353 19.9449 71.4767 20.6239C70.8557 21.2793 70.0059 21.6699 69.1041 21.7144C68.9504 21.7344 68.7941 21.7209 68.646 21.6749C68.498 21.6289 68.3616 21.5513 68.2463 21.4477C68.1309 21.344 68.0394 21.2167 67.9779 21.0744C67.9163 20.9321 67.8863 20.7781 67.8898 20.6231C67.8506 19.3219 68.6776 18.2121 69.078 17.0247C69.484 15.8595 69.8197 14.671 70.0833 13.4655C70.1225 13.107 70.1864 12.7516 70.2746 12.4019C69.9633 13.2881 69.4704 14.0996 68.8275 14.7844C68.5083 15.1165 68.0772 15.3184 67.6177 15.3508C67.1559 15.3856 66.6932 15.2965 66.2774 15.0926C65.8323 14.876 65.4373 14.5689 65.1176 14.1911C64.777 13.8032 64.5455 13.3319 64.4467 12.8253C64.3264 12.1444 64.2575 11.4554 64.2407 10.7641C64.2069 9.90637 64.1897 8.97872 64.1892 7.98114C64.1887 6.98356 64.2059 5.96112 64.2407 4.91384C64.2745 3.86655 64.2917 2.8618 64.2922 1.89957C64.2896 1.63256 64.3516 1.36886 64.4728 1.13094C64.5941 0.893027 64.771 0.687921 64.9885 0.533067C65.4099 0.244612 65.8975 0.067706 66.4057 0.0188989C66.8878 -0.0376926 67.3762 0.0333394 67.8222 0.224876C68.0035 0.277076 68.1614 0.39 68.2694 0.544747C68.3775 0.699495 68.429 0.88668 68.4155 1.07491C68.3458 2.17548 68.2597 3.36058 68.1573 4.63023C68.0548 5.89988 67.9603 7.09371 67.8737 8.2117C67.7876 9.32866 67.753 10.2737 67.7699 11.0469C67.7868 11.8201 67.8983 12.241 68.1042 12.3096C68.3092 12.3783 68.507 12.241 68.6976 11.8977C68.9283 11.4517 69.1179 10.9855 69.264 10.5051C69.4525 9.92199 69.6319 9.27768 69.802 8.57214C69.9721 7.86661 70.1181 7.17978 70.24 6.51165C70.361 5.84147 70.4635 5.23995 70.5475 4.70709C70.6168 4.32392 70.6594 3.9364 70.6751 3.54734C71.0878 3.34136 71.3529 3.34136 71.4744 3.54734C71.6422 3.90652 71.7549 4.28895 71.8087 4.68173C71.8505 5.01488 71.8593 5.35136 71.8348 5.68624C71.8054 6.32546 71.7366 6.96226 71.6288 7.59302C71.5074 8.33288 71.3352 9.13167 71.1124 9.98938C70.8993 10.8198 70.6149 11.6303 70.2623 12.4118C70.3648 10.5222 70.4506 8.72715 70.5198 7.02659C70.589 5.32604 70.6402 3.97747 70.6735 2.98091C70.6733 2.77912 70.7317 2.5816 70.8415 2.41231C70.9513 2.24301 71.1079 2.10922 71.2922 2.02714C71.7048 1.80425 72.1638 1.68083 72.6326 1.66669C73.0797 1.64249 73.525 1.74052 73.9207 1.95028C74.0937 2.03071 74.2368 2.16387 74.3294 2.33066C74.4221 2.49745 74.4595 2.68931 74.4364 2.8787C74.3339 3.60011 74.2478 4.52776 74.1781 5.66164C73.9476 9.46137 74.1182 13.3956 73.1982 17.1131C73.1644 17.2799 73.1206 17.4505 73.076 17.6173Z" fill="white"/>
</g>
</svg>
