<svg width="288" height="296" viewBox="0 0 288 296" fill="none" xmlns="http://www.w3.org/2000/svg">
<g filter="url(#filter0_d_655_65)">
<path d="M151.637 1.61005C144.87 -0.175072 137.819 -0.105662 130.387 2.93125C121.376 6.70511 113.471 12.6164 105.474 18.1564C80.5506 36.1647 54.7029 53.2422 29.1333 70.4133C26.7159 71.9825 24.3911 73.6447 21.9735 75.3066C18.998 77.3378 16.2093 78.9985 16.2888 82.988C16.3564 90.5957 16.3315 98.1103 16.3063 105.718C16.2811 113.325 16.2559 120.932 16.231 128.447C16.2024 137.075 16.1735 145.795 16.1449 154.423C16.1154 163.329 16.0856 172.328 16.0561 181.235C16.0284 189.584 16.0004 198.026 15.9728 206.376C15.9497 213.334 15.9263 220.385 15.9033 227.343C15.8873 232.167 15.8716 236.898 15.8556 241.722C15.8498 243.485 15.844 245.248 15.8381 247.011L271.427 247.857C271.457 238.858 271.486 229.952 271.516 220.953C271.581 201.378 271.646 181.803 271.711 162.228C271.795 136.808 270.86 111.107 272.15 85.784C272.249 83.7434 272.163 81.6093 271.056 79.8429C269.303 76.8683 265.226 75.2777 262.543 73.2278C258.563 70.2458 254.305 67.4485 250.232 64.6518C246.9 62.3214 243.568 59.991 240.235 57.7534C238.569 56.6346 236.903 55.423 235.237 54.3042C234.219 53.5586 231.445 50.859 230.239 50.855C216.447 41.2536 202.563 31.6519 188.585 22.3282C188.03 21.9553 187.474 21.5824 186.919 21.2094C180.809 17.1999 174.699 13.2832 168.496 9.45891C163.219 6.00879 157.662 3.11439 151.637 1.61005Z" fill="#B83950"/>
</g>
<path d="M31.6434 236.765L32.1303 89.8126C32.6946 87.4952 34.093 85.4588 36.0458 84.0736C38.2782 82.3183 40.6952 80.842 43.0198 79.2725C47.2038 76.5032 51.3878 73.7338 55.6642 71.0575C69.6093 62.2902 83.6463 53.8016 97.8682 45.4991C105.026 41.348 112.276 37.1972 119.525 33.2319C123.15 31.2029 126.775 29.2667 130.492 27.238C135.325 24.6563 140.251 21.9822 145.815 22.8356C151.656 23.6899 156.936 26.3051 162.122 29.0127C188.24 42.5514 212.679 58.4967 237.304 74.5354C237.396 74.6285 237.581 74.7219 237.674 74.8149C239.062 75.7473 240.451 76.5868 241.84 77.5192C244.987 79.5706 248.134 81.7148 251.189 83.8588C251.559 84.1383 251.929 84.4179 252.299 84.6974C254.243 86.0955 255.628 88.1411 256.177 90.4622L255.69 237.414L31.6437 236.672L31.6434 236.765Z" fill="#F2CE6F"/>
<path opacity="0.59" d="M34.3799 82.8613C35.2145 82.9569 144.172 154.568 144.172 154.568L253.973 83.5889L140.857 175.06" fill="url(#paint0_linear_655_65)"/>
<path d="M271.328 81.6993C270.31 81.0465 268.825 81.1343 267.618 81.3159C251.095 84.0443 237.979 94.5771 225.051 104.368C212.031 114.159 197.807 122.926 183.955 131.786C177.354 136.032 170.844 140.649 164.52 145.266C158.847 149.422 152.983 155.341 145.927 156.987C135.992 159.366 126.745 150.244 119.806 144.376C96.3077 124.445 68.8937 110.252 44.5572 91.2458C37.0617 85.4689 28.7423 76.3496 18.1572 79.0049C13.4218 80.1953 15.1642 86.3241 15.4312 89.7576C17.117 112.957 15.7407 136.331 14.8289 159.521C13.824 182.804 14.1183 205.999 15.0616 229.288C15.1449 232.164 15.1353 235.04 15.1261 237.824C15.1166 240.699 15.0143 243.575 15.0051 246.358C15.0041 246.637 14.9101 247.007 14.9092 247.286C14.9077 247.75 15.3719 247.658 15.7429 247.66C16.0213 247.66 16.2996 247.661 16.5779 247.662C16.8562 247.663 17.0418 247.664 17.3201 247.665C17.5984 247.666 17.9695 247.667 18.2478 247.668C18.6189 247.669 18.99 247.67 19.3611 247.672C19.8249 247.673 20.196 247.674 20.6599 247.676C21.1238 247.677 21.5876 247.679 22.1443 247.681C22.7009 247.683 23.2575 247.684 23.8142 247.686C24.3708 247.688 25.0202 247.69 25.5769 247.692C26.2263 247.694 26.8757 247.696 27.5251 247.699C28.2673 247.701 28.9167 247.703 29.6589 247.706C30.401 247.708 31.1432 247.711 31.8854 247.713C32.7204 247.716 33.4625 247.718 34.2975 247.721C35.1324 247.724 35.9674 247.727 36.8024 247.729C37.7301 247.732 38.565 247.735 39.4928 247.738C40.4205 247.741 41.3482 247.744 42.2759 247.747C43.2037 247.751 44.2242 247.754 45.1519 247.757C46.1724 247.76 47.1929 247.764 48.2134 247.767C49.2339 247.771 50.3472 247.774 51.3677 247.778C52.4809 247.781 53.5014 247.785 54.6147 247.788C55.728 247.792 56.8413 247.796 57.9545 247.799C59.0678 247.803 60.2739 247.807 61.3871 247.811C62.5932 247.815 63.7064 247.818 64.9125 247.822C66.1185 247.826 67.3246 247.83 68.5306 247.834C69.7367 247.838 71.0355 247.843 72.2415 247.847C73.5403 247.851 74.7464 247.855 76.0452 247.859C77.344 247.864 78.6429 247.868 79.9417 247.872C81.2405 247.877 82.5393 247.881 83.9309 247.886C85.2297 247.89 86.6213 247.894 87.9201 247.899C89.3117 247.903 90.6105 247.908 92.0021 247.912C93.3937 247.917 94.7853 247.921 96.0841 247.926C97.4757 247.93 98.8673 247.935 100.259 247.94C101.65 247.944 103.042 247.949 104.526 247.954C105.918 247.958 107.402 247.963 108.794 247.968C110.186 247.972 111.67 247.977 113.062 247.982C114.546 247.987 115.937 247.992 117.422 247.996C118.906 248.001 120.298 248.006 121.782 248.011C123.267 248.016 124.751 248.021 126.142 248.025C127.627 248.03 129.111 248.035 130.596 248.04C132.08 248.045 133.564 248.05 135.049 248.055C136.533 248.06 138.017 248.065 139.502 248.07C140.986 248.075 142.47 248.079 143.955 248.084C145.439 248.089 146.924 248.094 148.408 248.099C149.892 248.104 151.377 248.109 152.861 248.114C154.345 248.119 155.83 248.124 157.314 248.129C158.798 248.134 160.283 248.138 161.767 248.143C163.252 248.148 164.736 248.153 166.128 248.158C167.612 248.163 169.003 248.167 170.488 248.172C171.972 248.177 173.364 248.182 174.848 248.187C176.24 248.191 177.724 248.196 179.116 248.201C180.507 248.206 181.992 248.21 183.383 248.215C184.775 248.22 186.166 248.224 187.558 248.229C188.95 248.233 190.341 248.238 191.733 248.243C193.124 248.247 194.516 248.252 195.815 248.256C197.206 248.261 198.505 248.265 199.897 248.27C201.196 248.274 202.587 248.279 203.886 248.283C205.185 248.287 206.484 248.292 207.782 248.296C209.081 248.3 210.38 248.304 211.679 248.309C212.978 248.313 214.184 248.317 215.483 248.321C216.689 248.325 217.987 248.33 219.194 248.334C220.4 248.338 221.606 248.342 222.812 248.346C224.018 248.35 225.131 248.353 226.337 248.357C227.45 248.361 228.656 248.365 229.77 248.369C230.883 248.372 231.996 248.376 233.109 248.38C234.223 248.383 235.243 248.387 236.356 248.391C237.377 248.394 238.397 248.397 239.511 248.401C240.531 248.404 241.552 248.408 242.479 248.411C243.407 248.414 244.428 248.417 245.355 248.42C246.283 248.423 247.211 248.427 248.139 248.43C248.974 248.432 249.901 248.435 250.736 248.438C251.571 248.441 252.406 248.444 253.241 248.447C253.983 248.449 254.818 248.452 255.56 248.454C256.303 248.457 257.045 248.459 257.787 248.462C258.436 248.464 259.179 248.466 259.828 248.468C260.477 248.47 261.127 248.473 261.776 248.475C262.333 248.477 262.982 248.479 263.539 248.481C264.096 248.482 264.652 248.484 265.116 248.486C265.58 248.487 266.044 248.489 266.508 248.49C266.971 248.492 267.343 248.493 267.806 248.495C268.178 248.496 268.549 248.497 268.92 248.498C269.198 248.499 269.569 248.501 269.847 248.502C270.126 248.502 270.311 248.503 270.59 248.504C270.775 248.505 270.961 248.505 271.146 248.506C271.239 248.506 271.332 248.506 271.517 248.507L271.61 248.507L272.074 248.509C272.255 193.866 271.786 139.313 272.71 84.6726C272.712 83.8376 272.715 82.9099 272.254 82.259C271.791 82.0719 271.606 81.8857 271.328 81.6993Z" fill="#B83950"/>
<path opacity="0.24" d="M15.3747 246.916C15.8653 238.847 18.2995 232.175 24.3479 226.721C34.5836 217.478 125.347 152.095 129.345 149.603C132.692 147.48 138.641 144.067 142.908 144.082C147.176 144.096 153.102 147.548 156.435 149.693C160.415 152.304 259.359 222.119 260.918 227.505C265.538 233.365 269.782 240.337 270.219 248.41L15.3747 246.916Z" fill="black"/>
<path d="M15.0011 247.657C14.9086 247.564 14.9086 247.564 14.9092 247.379C14.818 246.915 15.0975 246.544 15.1918 246.081C15.2865 245.525 15.3811 244.968 15.5685 244.412C15.8505 243.3 16.2249 242.281 16.5994 241.261C17.5342 239.131 18.6539 237.186 20.0517 235.335C21.4494 233.484 23.0324 231.727 24.7078 230.063C25.4525 229.323 26.2899 228.583 27.1273 227.844C44.6184 212.873 64.1403 200.969 83.0168 187.858C92.5015 181.303 96.9675 177.421 106.452 170.865C113.054 166.249 119.287 161.167 125.612 156.178C130.728 152.206 136.308 147.956 143.082 147.608C150.413 147.168 157.45 151.088 163.282 155.097C165.504 156.588 167.725 158.266 169.853 159.943C177.256 165.626 184.007 172.05 191.503 177.549C197.246 180.444 207.235 189.661 212.324 193.575C216.674 196.929 224.172 201.964 230.464 206.809C241.106 215.101 248.061 215.959 257.027 226.008C261.094 230.567 264.603 235.496 267.647 240.794C268.477 242.189 271.709 246.745 270.869 248.227C270.029 249.708 263.72 249.78 262.236 249.868C249.707 251.033 237.285 248.301 224.76 248.26C209.36 248.209 194.053 248.158 178.652 248.107C141.358 247.983 104.063 247.86 66.7685 247.736C66.3975 247.735 66.1191 247.734 65.7481 247.733C65.0986 247.731 64.4492 247.728 63.7998 247.726C62.8721 247.723 62.0371 247.72 61.1094 247.717C59.9961 247.714 58.8829 247.71 57.7696 247.706C56.4708 247.702 55.172 247.698 53.9659 247.694C52.5743 247.689 51.1827 247.684 49.6984 247.68C48.214 247.675 46.7296 247.67 45.2453 247.665C43.6681 247.66 42.1838 247.655 40.6066 247.649C39.0295 247.644 37.5451 247.639 35.968 247.634C34.4836 247.629 32.9993 247.624 31.5149 247.619C30.1233 247.615 28.7317 247.61 27.3401 247.605C26.0413 247.601 24.8353 247.597 23.5365 247.593C22.4232 247.589 21.3099 247.586 20.2894 247.582C19.4545 247.579 18.5267 247.576 17.6918 247.574C17.0424 247.571 16.4857 247.57 15.836 247.66C15.6505 247.66 15.186 247.844 15.0011 247.657Z" fill="#B83950"/>
<defs>
<filter id="filter0_d_655_65" x="0.837891" y="0.424805" width="286.343" height="295.433" filterUnits="userSpaceOnUse" color-interpolation-filters="sRGB">
<feFlood flood-opacity="0" result="BackgroundImageFix"/>
<feColorMatrix in="SourceAlpha" type="matrix" values="0 0 0 0 0 0 0 0 0 0 0 0 0 0 0 0 0 0 127 0" result="hardAlpha"/>
<feOffset dy="33"/>
<feGaussianBlur stdDeviation="7.5"/>
<feComposite in2="hardAlpha" operator="out"/>
<feColorMatrix type="matrix" values="0 0 0 0 0 0 0 0 0 0 0 0 0 0 0 0 0 0 0.35 0"/>
<feBlend mode="normal" in2="BackgroundImageFix" result="effect1_dropShadow_655_65"/>
<feBlend mode="normal" in="SourceGraphic" in2="effect1_dropShadow_655_65" result="shape"/>
</filter>
<linearGradient id="paint0_linear_655_65" x1="144.126" y1="78.0202" x2="144.914" y2="159.33" gradientUnits="userSpaceOnUse">
<stop stop-color="white"/>
<stop offset="1" stop-color="#D1D1D1"/>
</linearGradient>
</defs>
</svg>
