<svg width="14" height="14" viewBox="0 0 14 14" fill="none" xmlns="http://www.w3.org/2000/svg">
<g id="Group 12437">
<path id="Vector" d="M1.53407 0.0693962C1.71999 0.0197754 1.91235 -0.00116832 2.10439 0.000120526C3.0082 0.000442739 3.912 -0.000523953 4.81581 0.000442685C5.39096 -0.00116838 5.96095 0.252735 6.34245 0.683534C6.67337 1.0457 6.8654 1.52934 6.87346 2.01975C6.87636 2.26721 6.87378 2.51467 6.87475 2.76245C8.38367 2.76245 9.89259 2.76277 11.4015 2.76213C11.1093 2.46924 10.8161 2.17699 10.5232 1.88506C10.3717 1.73846 10.2915 1.52193 10.3176 1.31217C10.3421 1.07019 10.508 0.85044 10.732 0.75732C10.923 0.675156 11.1505 0.686756 11.3319 0.787931C11.4334 0.842707 11.5117 0.928415 11.5923 1.00897C12.2406 1.65887 12.8917 2.3062 13.54 2.95642C13.7205 3.13783 13.7865 3.42202 13.7102 3.66529C13.677 3.78838 13.5913 3.88697 13.5056 3.97751C12.8718 4.61227 12.2364 5.24574 11.6026 5.8805C11.4859 6.00262 11.3603 6.12957 11.1918 6.17404C10.9076 6.2649 10.5747 6.14117 10.4172 5.88824C10.2438 5.62918 10.2815 5.25477 10.5038 5.03631C10.8022 4.73568 11.1031 4.43763 11.4015 4.13765C9.89259 4.13701 8.38399 4.13733 6.87507 4.13733C6.87282 4.39865 6.87829 4.65996 6.87217 4.92128C6.85574 5.39171 6.66724 5.85183 6.35405 6.20272C5.97739 6.63287 5.41545 6.89322 4.8432 6.89869C3.92006 6.90095 2.99692 6.89934 2.07378 6.89934C1.60528 6.90127 1.13678 6.74049 0.774295 6.44309C0.296131 6.06513 0.00227347 5.46614 0.00130683 4.85619C1.79804e-05 4.07224 0.00130676 3.2883 0.00098455 2.50436C0.00388446 2.18118 -0.0206036 1.85091 0.0692937 1.53611C0.249733 0.832074 0.831327 0.251769 1.53407 0.0693962ZM1.37619 2.05294C1.37554 2.98768 1.37458 3.92274 1.37683 4.85748C1.37812 5.20933 1.69002 5.52059 2.04156 5.52317C2.96599 5.52639 3.89074 5.5251 4.81549 5.52381C5.16154 5.52929 5.4786 5.2364 5.49664 4.89034C5.5047 4.63934 5.49793 4.38834 5.49987 4.13733C4.8084 4.13636 4.11725 4.13862 3.42611 4.13636C3.17349 4.13508 2.9299 3.97945 2.82067 3.75197C2.71015 3.53157 2.73238 3.25189 2.87738 3.05212C3.00111 2.87651 3.21022 2.76406 3.42578 2.76342C4.11693 2.76116 4.8084 2.76342 5.49987 2.76213C5.49664 2.50404 5.50696 2.24562 5.49471 1.98785C5.46571 1.64953 5.15284 1.3692 4.81355 1.37565C3.88945 1.37468 2.96502 1.37307 2.04091 1.37629C1.68551 1.37855 1.37232 1.69754 1.37619 2.05294Z" fill="white" fill-opacity="0.4"/>
<path id="Vector_2" d="M7.847 7.21341C8.16986 7.0072 8.55297 6.89925 8.93576 6.89958C9.87114 6.90022 10.8065 6.89829 11.7416 6.90054C12.4459 6.91085 13.12 7.31942 13.4703 7.92808C13.6562 8.24578 13.7509 8.61439 13.7487 8.98204C13.7487 9.89454 13.7493 10.8067 13.7483 11.7189C13.7483 12.2235 13.5521 12.7226 13.2122 13.0944C12.8339 13.5156 12.2765 13.7692 11.7097 13.7724C10.7853 13.7743 9.86083 13.7737 8.93641 13.773C8.4286 13.7737 7.92401 13.5787 7.55089 13.2336C7.14361 12.8679 6.89325 12.3337 6.87682 11.7859C6.87199 11.532 6.87682 11.2778 6.87424 11.0236C5.36629 11.0245 3.85801 11.0233 2.34973 11.0242C2.60106 11.2775 2.85432 11.5291 3.10629 11.7817C3.19683 11.8739 3.29833 11.9599 3.35794 12.0766C3.46008 12.2657 3.46491 12.5032 3.3705 12.6965C3.26965 12.9114 3.04958 13.0638 2.81275 13.0832C2.60364 13.1041 2.3913 13.019 2.24759 12.8673C1.56676 12.1842 0.882054 11.505 0.203474 10.8203C-0.062029 10.5667 -0.0504294 10.1049 0.204441 9.84879C0.891721 9.16183 1.57836 8.47391 2.2666 7.78792C2.4232 7.62907 2.6597 7.55721 2.87816 7.60071C3.12208 7.64421 3.33216 7.83142 3.40466 8.06792C3.48231 8.30539 3.41594 8.58121 3.23904 8.75778C2.94325 9.05582 2.6452 9.35162 2.34877 9.64902C3.85737 9.64934 5.36597 9.64902 6.87457 9.64902C6.87714 9.38287 6.87038 9.11672 6.87843 8.8509C6.90743 8.18972 7.2841 7.55915 7.847 7.21341ZM8.25203 8.91663C8.2459 9.16054 8.25138 9.40478 8.24977 9.64902C8.94059 9.64966 9.6311 9.64837 10.3219 9.64966C10.5794 9.64902 10.8265 9.81045 10.9335 10.0441C11.0411 10.2677 11.0131 10.5493 10.8623 10.7468C10.7315 10.925 10.5114 11.0294 10.2907 11.0239C9.61048 11.0242 8.92996 11.0233 8.24977 11.0242C8.25267 11.2772 8.243 11.5304 8.2546 11.7834C8.28167 12.1223 8.5955 12.4033 8.93479 12.3978C9.84859 12.3994 10.7627 12.3988 11.6765 12.3981C12.0329 12.4101 12.3615 12.1059 12.3718 11.7486C12.376 10.8151 12.3738 9.88166 12.3731 8.94821C12.3747 8.5957 12.0651 8.27833 11.7119 8.27543C10.7859 8.27317 9.85987 8.27478 8.93383 8.27478C8.58423 8.26705 8.26491 8.56735 8.25203 8.91663Z" fill="white" fill-opacity="0.4"/>
</g>
</svg>
