<svg width="11" height="12" viewBox="0 0 11 12" fill="none" xmlns="http://www.w3.org/2000/svg">
<path id="Vector" d="M9.88075 3.93811C9.8934 3.84241 9.9 3.74671 9.9 3.65156C9.9 2.34311 8.72135 1.29316 7.41345 1.47081C7.0323 0.792662 6.3063 0.351562 5.5 0.351562C4.6937 0.351562 3.9677 0.792662 3.58655 1.47081C2.2759 1.29316 1.1 2.34311 1.1 3.65156C1.1 3.74671 1.1066 3.84241 1.11925 3.93811C0.4411 4.31981 0 5.04581 0 5.85156C0 6.65731 0.4411 7.38331 1.11925 7.76501C1.10656 7.86 1.10013 7.95573 1.1 8.05156C1.1 9.36001 2.2759 10.4072 3.58655 10.2323C3.9677 10.9105 4.6937 11.3516 5.5 11.3516C6.3063 11.3516 7.0323 10.9105 7.41345 10.2323C8.72135 10.4072 9.9 9.36001 9.9 8.05156C9.9 7.95641 9.8934 7.86071 9.88075 7.76501C10.5589 7.38331 11 6.65731 11 5.85156C11 5.04581 10.5589 4.31981 9.88075 3.93811ZM4.92525 8.28036L2.9084 6.23766L3.6916 5.46546L4.93295 6.72276L7.3128 4.36106L8.0872 5.14206L4.92525 8.28036Z" fill="#287BDD"/>
</svg>
